<svg width="100" height="40" viewBox="0 0 100 40" fill="none" xmlns="http://www.w3.org/2000/svg">
  <!-- CDO Group Logo Recreation -->
  <rect width="100" height="40" fill="#2C2C2C"/>
  
  <!-- CDO Text -->
  <g fill="#EF2323">
    <!-- C -->
    <path d="M12 8.5C9.5 8.5 7.5 10.5 7.5 13V17C7.5 19.5 9.5 21.5 12 21.5H15V18.5H12C11.2 18.5 10.5 17.8 10.5 17V13C10.5 12.2 11.2 11.5 12 11.5H15V8.5H12Z"/>
    
    <!-- D -->
    <path d="M18 8.5V21.5H24C26.5 21.5 28.5 19.5 28.5 17V13C28.5 10.5 26.5 8.5 24 8.5H18ZM21 11.5H24C24.8 11.5 25.5 12.2 25.5 13V17C25.5 17.8 24.8 18.5 24 18.5H21V11.5Z"/>
    
    <!-- O -->
    <path d="M31.5 13V17C31.5 19.5 33.5 21.5 36 21.5H39C41.5 21.5 43.5 19.5 43.5 17V13C43.5 10.5 41.5 8.5 39 8.5H36C33.5 8.5 31.5 10.5 31.5 13ZM34.5 13C34.5 12.2 35.2 11.5 36 11.5H39C39.8 11.5 40.5 12.2 40.5 13V17C40.5 17.8 39.8 18.5 39 18.5H36C35.2 18.5 34.5 17.8 34.5 17V13Z"/>
  </g>
  
  <!-- GROUP Text -->
  <g fill="#C0C0C0" font-family="Arial, sans-serif" font-size="8" font-weight="bold">
    <text x="48" y="28">GROUP</text>
  </g>
</svg>
